<?xml version="1.0" standalone="no"?><!DOCTYPE svg PUBLIC "-//W3C//DTD SVG 1.1//EN" "http://www.w3.org/Graphics/SVG/1.1/DTD/svg11.dtd"><svg t="1698670155173" class="icon" viewBox="0 0 1024 1024" version="1.1" xmlns="http://www.w3.org/2000/svg" p-id="5886" xmlns:xlink="http://www.w3.org/1999/xlink" width="200" height="200"><path d="M882.758791 503.166775C882.758791 703.056397 720.721435 865.093753 520.831813 865.093753S158.904834 703.056397 158.904834 503.166775 320.942191 141.239796 520.831813 141.239796 882.758791 303.277153 882.758791 503.166775" fill="#F9C38A" p-id="5887"></path><path d="M723.86402 450.201851C723.86402 591.582887 609.247925 706.198982 467.866889 706.198982S211.869758 591.582887 211.869758 450.201851 326.485853 194.20472 467.866889 194.20472 723.86402 308.820815 723.86402 450.201851" fill="#FFD199" p-id="5888"></path><path d="M547.314275 379.581953a132.412309 132.412309 0 1 1-264.824619 0 132.412309 132.412309 0 0 1 264.824619 0" fill="#FFD8AE" p-id="5889"></path><path d="M211.869758 141.239796h-28.00079L141.24986 98.620688V70.619898a17.654975 17.654975 0 1 0-35.309949 0v28.00079L63.320802 141.239796H35.320012a17.654975 17.654975 0 1 0 0 35.30995h28.00079L105.939911 219.168854V247.169644a17.654975 17.654975 0 1 0 35.309949 0v-28.00079L183.868968 176.549746H211.869758a17.654975 17.654975 0 1 0 0-35.30995M899.813497 966.450962a17.654975 17.654975 0 1 1-34.109411 9.145277 17.654975 17.654975 0 0 1 34.109411-9.145277M988.088369 613.351471a17.654975 17.654975 0 1 1-34.10941 9.145277 17.654975 17.654975 0 0 1 34.10941-9.145277M105.339642 419.146751a17.654975 17.654975 0 1 1-34.109411 9.145277 17.654975 17.654975 0 0 1 34.109411-9.145277M440.784158 436.801725a17.654975 17.654975 0 1 1-34.109411 9.145277 17.654975 17.654975 0 0 1 34.109411-9.145277M564.36898 984.105937a17.654975 17.654975 0 1 1-34.144721 9.127622 17.654975 17.654975 0 0 1 34.144721-9.127622" fill="#F3D55B" p-id="5890"></path><path d="M617.316249 164.420778s-0.088275 0.07062-0.07062 0.088275c1.235848 0.459029 0.07062-0.088275 0.07062-0.088275M1013.317328 10.68126c-22.598367-22.580712-139.474299 54.712766-295.809099 189.137742a364.045575 364.045575 0 0 1 29.483808 21.539069c104.499794-89.034037 179.815916-142.299095 218.533275-162.884795-35.733669 67.247798-169.487756 244.397813-419.464541 494.374597C296.101642 802.807003 118.951627 936.56109 51.703829 972.294759c22.280578-41.930565 82.695901-126.603823 185.589092-244.980427a368.812418 368.812418 0 0 1-21.256589-29.519118C67.557996 867.300625-19.940058 996.234904 3.911813 1020.086775c34.46251 34.480165 288.376354-163.538029 567.113092-442.274768C849.761644 299.075269 1047.779838 45.161425 1013.317328 10.68126" fill="#F9EBB0" p-id="5891"></path></svg>